<svg width="15" height="14" viewBox="0 0 15 14" fill="none" xmlns="http://www.w3.org/2000/svg">
<path fill-rule="evenodd" clip-rule="evenodd" d="M3.59882 6.27754C5.3012 3.25918 6.15239 1.75 7.50033 1.75C8.84826 1.75 9.69945 3.25918 11.4018 6.27753L11.614 6.65365C13.0286 9.16189 13.736 10.416 13.0967 11.333C12.4574 12.25 10.8757 12.25 7.71246 12.25H7.28819C4.1249 12.25 2.54326 12.25 1.90398 11.333C1.26469 10.416 1.97202 9.16189 3.38669 6.65366L3.59882 6.27754ZM7.50033 4.22917C7.74195 4.22917 7.93783 4.42504 7.93783 4.66667V7.58333C7.93783 7.82496 7.74195 8.02083 7.50033 8.02083C7.2587 8.02083 7.06283 7.82496 7.06283 7.58333V4.66667C7.06283 4.42504 7.2587 4.22917 7.50033 4.22917ZM7.50033 9.91667C7.82249 9.91667 8.08366 9.6555 8.08366 9.33333C8.08366 9.01117 7.82249 8.75 7.50033 8.75C7.17816 8.75 6.91699 9.01117 6.91699 9.33333C6.91699 9.6555 7.17816 9.91667 7.50033 9.91667Z" fill="white"/>
</svg>
