<svg width="14" height="14" viewBox="0 0 14 14" fill="none" xmlns="http://www.w3.org/2000/svg">
<path fill-rule="evenodd" clip-rule="evenodd" d="M12.8327 6.99984C12.8327 10.2215 10.221 12.8332 6.99935 12.8332C3.77769 12.8332 1.16602 10.2215 1.16602 6.99984C1.16602 3.77818 3.77769 1.1665 6.99935 1.1665C10.221 1.1665 12.8327 3.77818 12.8327 6.99984ZM9.35038 5.23214C9.52123 5.403 9.52123 5.68001 9.35038 5.85086L6.43371 8.76753C6.26285 8.93839 5.98584 8.93839 5.81499 8.76753L4.64832 7.60086C4.47747 7.43001 4.47747 7.153 4.64832 6.98214C4.81918 6.81129 5.09619 6.81129 5.26704 6.98214L6.12435 7.83945L7.428 6.5358L8.73166 5.23214C8.90251 5.06129 9.17952 5.06129 9.35038 5.23214Z" fill="white"/>
</svg>
