<svg width="74" height="74" viewBox="0 0 74 74" fill="none" xmlns="http://www.w3.org/2000/svg">
<g clip-path="url(#clip0_1662_49271)">
<g filter="url(#filter0_d_1662_49271)">
<path d="M36.9974 67.8332C19.9686 67.8332 6.16406 54.0286 6.16406 36.9998C6.16406 19.9711 19.9686 6.1665 36.9974 6.1665C54.0262 6.1665 67.8307 19.9711 67.8307 36.9998C67.8307 54.0286 54.0262 67.8332 36.9974 67.8332Z" fill="white"/>
</g>
<path d="M32.2789 26.1148C33.182 25.2117 34.6462 25.2117 35.5492 26.1148C36.4523 27.0179 36.4523 28.4821 35.5492 29.3852L30.2469 34.6875H49.3307C50.6079 34.6875 51.6432 35.7228 51.6432 37C51.6432 38.2772 50.6079 39.3125 49.3307 39.3125H30.2469L35.5492 44.6148C36.4523 45.5179 36.4523 46.9821 35.5492 47.8852C34.6462 48.7883 33.182 48.7883 32.2789 47.8852L23.0289 38.6352C22.1258 37.7321 22.1258 36.2679 23.0289 35.3648L32.2789 26.1148Z" fill="black" fill-opacity="0.2"/>
</g>
<defs>
<filter id="filter0_d_1662_49271" x="2.16406" y="4.1665" width="69.6641" height="69.6665" filterUnits="userSpaceOnUse" color-interpolation-filters="sRGB">
<feFlood flood-opacity="0" result="BackgroundImageFix"/>
<feColorMatrix in="SourceAlpha" type="matrix" values="0 0 0 0 0 0 0 0 0 0 0 0 0 0 0 0 0 0 127 0" result="hardAlpha"/>
<feOffset dy="2"/>
<feGaussianBlur stdDeviation="2"/>
<feComposite in2="hardAlpha" operator="out"/>
<feColorMatrix type="matrix" values="0 0 0 0 0 0 0 0 0 0 0 0 0 0 0 0 0 0 0.14 0"/>
<feBlend mode="normal" in2="BackgroundImageFix" result="effect1_dropShadow_1662_49271"/>
<feBlend mode="normal" in="SourceGraphic" in2="effect1_dropShadow_1662_49271" result="shape"/>
</filter>
<clipPath id="clip0_1662_49271">
<rect width="74" height="74" fill="white"/>
</clipPath>
</defs>
</svg>
